<?xml version="1.0" encoding="utf-8"?>
<!-- Generator: Adobe Illustrator 27.3.1, SVG Export Plug-In . SVG Version: 6.00 Build 0)  -->
<svg version="1.1" id="Calque_1" xmlns="http://www.w3.org/2000/svg" xmlns:xlink="http://www.w3.org/1999/xlink" x="0px" y="0px"
	 viewBox="0 0 32 32" style="enable-background:new 0 0 32 32;" xml:space="preserve">
<style type="text/css">
	.st0{fill:url(#SVGID_1_);}
	.st1{fill:url(#SVGID_00000016060393839202399970000008030527223715257220_);}
	.st2{fill:url(#SVGID_00000063603707324448341220000012582207781543768494_);}
</style>
<linearGradient id="SVGID_1_" gradientUnits="userSpaceOnUse" x1="12" y1="21" x2="30" y2="21">
	<stop  offset="0" style="stop-color:#19335A"/>
	<stop  offset="1" style="stop-color:#8FC8EB"/>
</linearGradient>
<path class="st0" d="M12,12h5.5v2.8h0.1c0.8-1.4,2.7-2.8,5.5-2.8c5.8,0,6.9,3.6,6.9,8.4V30h-5.8v-8.5c0-2,0-4.7-3-4.7
	s-3.5,2.2-3.5,4.5V30H12V12z"/>
<linearGradient id="SVGID_00000136383712381109010300000013559320723075251367_" gradientUnits="userSpaceOnUse" x1="2" y1="21" x2="8" y2="21">
	<stop  offset="0" style="stop-color:#19335A"/>
	<stop  offset="1" style="stop-color:#8FC8EB"/>
</linearGradient>
<path style="fill:url(#SVGID_00000136383712381109010300000013559320723075251367_);" d="M2,12h6v18H2V12z"/>
<linearGradient id="SVGID_00000002352831091802845260000000717236909820367754_" gradientUnits="userSpaceOnUse" x1="2" y1="7" x2="8" y2="7">
	<stop  offset="0" style="stop-color:#19335A"/>
	<stop  offset="1" style="stop-color:#8FC8EB"/>
</linearGradient>
<path style="fill:url(#SVGID_00000002352831091802845260000000717236909820367754_);" d="M8,7c0,1.7-1.3,3-3,3S2,8.7,2,7s1.3-3,3-3
	S8,5.3,8,7z"/>
</svg>
