<?xml version="1.0" encoding="utf-8"?>
<!-- Generator: Adobe Illustrator 27.3.1, SVG Export Plug-In . SVG Version: 6.00 Build 0)  -->
<svg version="1.1" id="Calque_1" xmlns="http://www.w3.org/2000/svg" xmlns:xlink="http://www.w3.org/1999/xlink" x="0px" y="0px"
	 viewBox="0 0 32 32" style="enable-background:new 0 0 32 32;" xml:space="preserve">
<style type="text/css">
	.st0{fill:url(#SVGID_1_);}
	.st1{fill:url(#SVGID_00000136382248164455950580000016263677849448811943_);}
	.st2{fill:url(#SVGID_00000173865791380832623580000017160405318718253465_);}
</style>
<linearGradient id="SVGID_1_" gradientUnits="userSpaceOnUse" x1="0" y1="16.2" x2="16.5" y2="16.2">
	<stop  offset="0" style="stop-color:#19335A"/>
	<stop  offset="1" style="stop-color:#8FC8EB"/>
</linearGradient>
<path class="st0" d="M9.3,6.4c0.9,0,1.8,0.1,2.6,0.2c0.8,0.2,1.4,0.4,2,0.8s1,0.9,1.3,1.5c0.3,0.6,0.4,1.4,0.4,2.3
	c0,1-0.2,1.8-0.7,2.5s-1.1,1.2-2,1.6c1.2,0.4,2.1,1,2.7,1.8c0.6,0.9,0.9,1.9,0.9,3.2c0,1-0.2,1.9-0.6,2.6s-0.9,1.3-1.6,1.8
	c-0.6,0.5-1.4,0.8-2.2,1S10.4,26,9.5,26H0V6.4H9.3z M8.7,14.4c0.8,0,1.4-0.2,1.9-0.6c0.5-0.4,0.7-1,0.7-1.8c0-0.5-0.1-0.8-0.2-1.1
	c-0.2-0.3-0.4-0.5-0.7-0.7s-0.6-0.3-1-0.3c-0.3-0.1-0.6-0.1-1-0.1H4.3v4.6H8.7z M9,22.7c0.4,0,0.8,0,1.2-0.1s0.7-0.2,1-0.4
	c0.3-0.2,0.5-0.5,0.7-0.8s0.3-0.8,0.3-1.3c0-1-0.3-1.7-0.9-2.2c-0.6-0.4-1.3-0.6-2.3-0.6H4.3v5.4H9L9,22.7z"/>
<linearGradient id="SVGID_00000036941683243472732440000007530482456301883835_" gradientUnits="userSpaceOnUse" x1="17.8" y1="19" x2="32" y2="19">
	<stop  offset="0" style="stop-color:#19335A"/>
	<stop  offset="1" style="stop-color:#8FC8EB"/>
</linearGradient>
<path style="fill:url(#SVGID_00000036941683243472732440000007530482456301883835_);" d="M22.7,22.7c0.6,0.6,1.4,0.9,2.5,0.9
	c0.8,0,1.5-0.2,2-0.6s0.9-0.8,1-1.3h3.5c-0.6,1.7-1.4,2.9-2.5,3.7c-1.1,0.7-2.5,1.1-4.1,1.1c-1.1,0-2.1-0.2-3-0.5
	c-0.9-0.4-1.7-0.9-2.3-1.5c-0.6-0.7-1.1-1.5-1.5-2.4c-0.3-0.9-0.5-1.9-0.5-3s0.2-2.1,0.5-3c0.4-0.9,0.8-1.7,1.5-2.4s1.4-1.2,2.3-1.6
	c0.9-0.4,1.9-0.6,3-0.6c1.2,0,2.3,0.2,3.2,0.7c0.9,0.5,1.6,1.1,2.2,1.9s1,1.7,1.2,2.7S32,18.9,32,20H21.7
	C21.7,21,22.1,22.1,22.7,22.7L22.7,22.7z M27.2,15.2c-0.5-0.5-1.3-0.8-2.2-0.8c-0.6,0-1.1,0.1-1.6,0.3c-0.4,0.2-0.7,0.5-1,0.8
	c-0.2,0.3-0.4,0.6-0.5,1c-0.1,0.3-0.2,0.7-0.2,0.9h6.4C28,16.4,27.6,15.7,27.2,15.2L27.2,15.2z"/>
<linearGradient id="SVGID_00000033361318120101007600000001539172713346787996_" gradientUnits="userSpaceOnUse" x1="20.9" y1="8.95" x2="28.9" y2="8.95">
	<stop  offset="0" style="stop-color:#19335A"/>
	<stop  offset="1" style="stop-color:#8FC8EB"/>
</linearGradient>
<path style="fill:url(#SVGID_00000033361318120101007600000001539172713346787996_);" d="M20.9,8h8v1.9h-8V8z"/>
</svg>
