<?xml version="1.0" encoding="utf-8"?>
<!-- Generator: Adobe Illustrator 27.3.1, SVG Export Plug-In . SVG Version: 6.00 Build 0)  -->
<svg version="1.1" id="Calque_1" xmlns="http://www.w3.org/2000/svg" xmlns:xlink="http://www.w3.org/1999/xlink" x="0px" y="0px"
	 viewBox="0 0 155.79 182.5" style="enable-background:new 0 0 155.79 182.5;" xml:space="preserve">
<style type="text/css">
	.st0{fill:#FFFFFF;}
	.st1{fill:url(#SVGID_1_);}
</style>
<g>
	<path class="st0" d="M122.34,219.5c-0.01-76.33-0.01-152.67-0.02-229c0-3.05,0-6.11,0-9.5c-71.38,0-142.43,0-213.48,0
		c0.67-0.17,1.33-0.48,2-0.48c23.78-0.02,47.56-0.02,71.33-0.02c46.89,0,93.78,0,140.67,0c0,78.92,0,157.84-0.02,236.75
		C122.82,218,122.51,218.75,122.34,219.5z"/>
	<linearGradient id="SVGID_1_" gradientUnits="userSpaceOnUse" x1="26.4585" y1="50.5409" x2="157.0861" y2="135.4378">
		<stop  offset="0.3036" style="stop-color:#8FC8EB"/>
		<stop  offset="1" style="stop-color:#19335A"/>
	</linearGradient>
	<path class="st1" d="M112.67,0c14.55,0,28.58,0,42.89,0c0.04,0.94,0.12,1.81,0.12,2.69c0.01,48.88-0.19,97.77,0.11,146.65
		c0.11,17.5-13.23,30.29-25.36,32.37c-2.28,0.39-4.6,0.73-6.91,0.74c-30.42,0.05-60.84,0.08-91.26,0.01
		c-18.05-0.04-32.15-14.25-32.24-32.34c-0.05-9.89-0.01-19.79-0.01-29.68c0-0.65,0-1.31,0-2.14c14.32,0,28.47,0,42.87,0
		c0,7.03,0,13.98,0,21.09c23.32,0,46.38,0,69.79,0C112.67,93.03,112.67,46.62,112.67,0z"/>
</g>
</svg>
