<?xml version="1.0" encoding="utf-8"?>
<!-- Generator: Adobe Illustrator 27.3.1, SVG Export Plug-In . SVG Version: 6.00 Build 0)  -->
<svg version="1.1" id="Calque_1" xmlns="http://www.w3.org/2000/svg" xmlns:xlink="http://www.w3.org/1999/xlink" x="0px" y="0px"
	 viewBox="0 0 225 225" style="enable-background:new 0 0 225 225;" xml:space="preserve">
<style type="text/css">
	.st0{fill:#F7461C;}
	.st1{fill:#FFFFFF;}
</style>
<path class="st0" d="M0,0h225v225H0C0,150,0,75,0,0z M41.6,181.4c1.6,0,2.9,0.1,4.3,0c0.3,0,0.7-0.5,0.8-0.9
	c1.4-4.3,2.8-8.5,4.1-12.8c2.7-8.4,5.3-16.8,8-25.2c4-12.2,8-24.5,12-36.7c3.6-11.1,7.3-22.2,11-33.2c0.4-1.1,0.8-2.1,1.2-3.4
	c0.2,0.6,0.3,0.9,0.4,1.2c1.9,5.7,3.8,11.4,5.7,17c3.8,11.4,7.6,22.8,11.4,34.2c3.9,11.6,7.8,23.1,11.7,34.7
	c2.6,7.8,5.2,15.6,7.7,23.5c0.5,1.4,1.2,1.8,2.6,1.8c19.8-0.1,39.6,0,59.4-0.1c0.4,0,0.9-0.1,1.5-0.1c-0.6-1.4-1.3-2.6-1.7-3.9
	c-5.5-16.4-11-32.9-16.4-49.3c-4.6-13.8-9.1-27.6-13.7-41.4c-3.2-9.8-6.5-19.6-9.8-29.3c-2.5-7.6-5.2-15.2-7.6-22.8
	c-0.5-1.5-1.1-1.9-2.6-1.9c-10.5,0.1-20.9,0-31.4,0c-2.8,0-5.7,0-8.5,0c-0.7,0-1.3,0.1-1.5,0.9c-2.1,6.4-4.2,12.9-6.3,19.3
	c-3.8,11.8-7.7,23.6-11.5,35.3c-3.6,11.1-7.3,22.1-11,33.1c-2.7,8.1-5.3,16.2-7.9,24.3c-2.9,8.8-5.8,17.7-8.7,26.5
	C43.6,175.2,42.7,178.2,41.6,181.4L41.6,181.4z"/>
<path class="st1" d="M41.6,181.4c1-3.2,1.9-6.2,2.9-9.2c2.9-8.9,5.8-17.7,8.7-26.5c2.7-8.1,5.3-16.2,7.9-24.3
	c3.6-11.1,7.3-22.1,11-33.1c3.9-11.8,7.7-23.6,11.5-35.3c2.1-6.4,4.2-12.9,6.3-19.3c0.3-0.8,0.8-1,1.5-0.9c2.8,0,5.7,0,8.5,0
	c10.5,0,20.9,0,31.4,0c1.5,0,2.1,0.4,2.6,1.9c2.5,7.6,5.1,15.2,7.6,22.8c3.3,9.8,6.5,19.6,9.8,29.3c4.6,13.8,9.1,27.6,13.7,41.4
	c5.5,16.4,10.9,32.9,16.4,49.3c0.4,1.3,1.1,2.5,1.7,3.9c-0.6,0.1-1,0.1-1.5,0.1c-19.8,0-39.6,0-59.4,0.1c-1.4,0-2.1-0.4-2.6-1.8
	c-2.5-7.8-5.1-15.7-7.7-23.5c-3.9-11.6-7.8-23.1-11.7-34.7c-3.8-11.4-7.6-22.8-11.4-34.2c-1.9-5.7-3.8-11.4-5.7-17
	c-0.1-0.3-0.2-0.6-0.4-1.2c-0.5,1.3-0.9,2.3-1.2,3.4c-3.7,11.1-7.3,22.2-11,33.2c-4,12.2-8,24.5-12,36.7c-2.7,8.4-5.3,16.8-8,25.2
	c-1.4,4.3-2.7,8.6-4.1,12.8c-0.1,0.3-0.5,0.8-0.8,0.9C44.6,181.5,43.2,181.5,41.6,181.4L41.6,181.4z"/>
</svg>
